<?xml version="1.0" encoding="utf-8" standalone="no"?>
<!DOCTYPE svg PUBLIC "-//W3C//DTD SVG 1.1//EN"
  "http://www.w3.org/Graphics/SVG/1.1/DTD/svg11.dtd">
<svg xmlns:xlink="http://www.w3.org/1999/xlink" width="259.2pt" height="230.4pt" viewBox="0 0 259.2 230.4" xmlns="http://www.w3.org/2000/svg" version="1.1">
 <metadata>
  <rdf:RDF xmlns:dc="http://purl.org/dc/elements/1.1/" xmlns:cc="http://creativecommons.org/ns#" xmlns:rdf="http://www.w3.org/1999/02/22-rdf-syntax-ns#">
   <cc:Work>
    <dc:type rdf:resource="http://purl.org/dc/dcmitype/StillImage"/>
    <dc:date>2023-06-26T21:53:57.947406</dc:date>
    <dc:format>image/svg+xml</dc:format>
    <dc:creator>
     <cc:Agent>
      <dc:title>Matplotlib v3.5.3, https://matplotlib.org/</dc:title>
     </cc:Agent>
    </dc:creator>
   </cc:Work>
  </rdf:RDF>
 </metadata>
 <defs>
  <style type="text/css">*{stroke-linejoin: round; stroke-linecap: butt}</style>
 </defs>
 <g id="figure_1">
  <g id="patch_1">
   <path d="M 0 230.4 
L 259.2 230.4 
L 259.2 0 
L 0 0 
z
" style="fill: #ffffff"/>
  </g>
  <g id="axes_1">
   <g id="patch_2">
    <path d="M 49.474054 189.839176 
L 243.418665 189.839176 
L 243.418665 23.661476 
L 49.474054 23.661476 
z
" style="fill: #ffffff"/>
   </g>
   <g id="matplotlib.axis_1">
    <g id="xtick_1">
     <g id="line2d_1">
      <path d="M 67.105383 189.839176 
L 67.105383 23.661476 
" clip-path="url(#pd295d76288)" style="fill: none; stroke: #b0b0b0; stroke-opacity: 0.5; stroke-width: 0.8; stroke-linecap: square"/>
     </g>
     <g id="line2d_2">
      <defs>
       <path id="m45f86f2509" d="M 0 0 
L 0 3.5 
" style="stroke: #000000; stroke-width: 0.8"/>
      </defs>
      <g>
       <use xlink:href="#m45f86f2509" x="67.105383" y="189.839176" style="stroke: #000000; stroke-width: 0.8"/>
      </g>
     </g>
     <g id="text_1">
      <!-- $\mathdefault{4}$ -->
      <g transform="translate(64.614715 203.700653)scale(0.1 -0.1)">
       <defs>
        <path id="CMR17-34" d="M 2150 4147 
C 2150 4281 2144 4288 2029 4288 
L 128 1254 
L 128 1088 
L 1779 1088 
L 1779 460 
C 1779 230 1766 166 1318 166 
L 1197 166 
L 1197 0 
C 1402 12 1747 12 1965 12 
C 2182 12 2528 12 2733 0 
L 2733 166 
L 2611 166 
C 2163 166 2150 230 2150 460 
L 2150 1088 
L 2803 1088 
L 2803 1254 
L 2150 1254 
L 2150 4147 
z
M 1798 3723 
L 1798 1254 
L 256 1254 
L 1798 3723 
z
" transform="scale(0.015625)"/>
       </defs>
       <use xlink:href="#CMR17-34" transform="scale(0.996264)"/>
      </g>
     </g>
    </g>
    <g id="xtick_2">
     <g id="line2d_3">
      <path d="M 102.368039 189.839176 
L 102.368039 23.661476 
" clip-path="url(#pd295d76288)" style="fill: none; stroke: #b0b0b0; stroke-opacity: 0.5; stroke-width: 0.8; stroke-linecap: square"/>
     </g>
     <g id="line2d_4">
      <g>
       <use xlink:href="#m45f86f2509" x="102.368039" y="189.839176" style="stroke: #000000; stroke-width: 0.8"/>
      </g>
     </g>
     <g id="text_2">
      <!-- $\mathdefault{6}$ -->
      <g transform="translate(99.877371 203.700653)scale(0.1 -0.1)">
       <defs>
        <path id="CMR17-36" d="M 678 2198 
C 678 3712 1395 4076 1811 4076 
C 1946 4076 2272 4049 2400 3782 
C 2298 3782 2106 3782 2106 3558 
C 2106 3385 2246 3328 2336 3328 
C 2394 3328 2566 3353 2566 3571 
C 2566 3987 2246 4224 1805 4224 
C 1043 4224 243 3411 243 2011 
C 243 257 966 -128 1478 -128 
C 2099 -128 2688 431 2688 1295 
C 2688 2101 2170 2688 1517 2688 
C 1126 2688 838 2430 678 1979 
L 678 2198 
z
M 1478 25 
C 691 25 691 1212 691 1450 
C 691 1914 909 2585 1504 2585 
C 1613 2585 1926 2585 2138 2140 
C 2253 1889 2253 1624 2253 1302 
C 2253 954 2253 696 2118 438 
C 1978 173 1773 25 1478 25 
z
" transform="scale(0.015625)"/>
       </defs>
       <use xlink:href="#CMR17-36" transform="scale(0.996264)"/>
      </g>
     </g>
    </g>
    <g id="xtick_3">
     <g id="line2d_5">
      <path d="M 137.630695 189.839176 
L 137.630695 23.661476 
" clip-path="url(#pd295d76288)" style="fill: none; stroke: #b0b0b0; stroke-opacity: 0.5; stroke-width: 0.8; stroke-linecap: square"/>
     </g>
     <g id="line2d_6">
      <g>
       <use xlink:href="#m45f86f2509" x="137.630695" y="189.839176" style="stroke: #000000; stroke-width: 0.8"/>
      </g>
     </g>
     <g id="text_3">
      <!-- $\mathdefault{8}$ -->
      <g transform="translate(135.140028 203.700653)scale(0.1 -0.1)">
       <defs>
        <path id="CMR17-38" d="M 1741 2289 
C 2144 2494 2554 2803 2554 3298 
C 2554 3884 1990 4224 1472 4224 
C 890 4224 378 3800 378 3215 
C 378 3054 416 2777 666 2533 
C 730 2469 998 2276 1171 2154 
C 883 2006 211 1652 211 945 
C 211 282 838 -128 1459 -128 
C 2144 -128 2720 366 2720 1022 
C 2720 1607 2330 1877 2074 2051 
L 1741 2289 
z
M 902 2855 
C 851 2887 595 3086 595 3388 
C 595 3781 998 4076 1459 4076 
C 1965 4076 2336 3716 2336 3298 
C 2336 2700 1670 2359 1638 2359 
C 1632 2359 1626 2359 1574 2398 
L 902 2855 
z
M 2080 1536 
C 2176 1466 2483 1253 2483 861 
C 2483 385 2010 25 1472 25 
C 890 25 448 443 448 951 
C 448 1459 838 1884 1280 2083 
L 2080 1536 
z
" transform="scale(0.015625)"/>
       </defs>
       <use xlink:href="#CMR17-38" transform="scale(0.996264)"/>
      </g>
     </g>
    </g>
    <g id="xtick_4">
     <g id="line2d_7">
      <path d="M 172.893352 189.839176 
L 172.893352 23.661476 
" clip-path="url(#pd295d76288)" style="fill: none; stroke: #b0b0b0; stroke-opacity: 0.5; stroke-width: 0.8; stroke-linecap: square"/>
     </g>
     <g id="line2d_8">
      <g>
       <use xlink:href="#m45f86f2509" x="172.893352" y="189.839176" style="stroke: #000000; stroke-width: 0.8"/>
      </g>
     </g>
     <g id="text_4">
      <!-- $\mathdefault{10}$ -->
      <g transform="translate(167.912017 203.700653)scale(0.1 -0.1)">
       <defs>
        <path id="CMR17-31" d="M 1702 4083 
C 1702 4217 1696 4224 1606 4224 
C 1357 3927 979 3833 621 3820 
C 602 3820 570 3820 563 3808 
C 557 3795 557 3782 557 3648 
C 755 3648 1088 3686 1344 3839 
L 1344 467 
C 1344 243 1331 166 781 166 
L 589 166 
L 589 0 
C 896 6 1216 12 1523 12 
C 1830 12 2150 6 2458 0 
L 2458 166 
L 2266 166 
C 1715 166 1702 236 1702 467 
L 1702 4083 
z
" transform="scale(0.015625)"/>
        <path id="CMR17-30" d="M 2688 2038 
C 2688 2430 2682 3099 2413 3613 
C 2176 4063 1798 4224 1466 4224 
C 1158 4224 768 4082 525 3620 
C 269 3137 243 2539 243 2038 
C 243 1671 250 1112 448 623 
C 723 -39 1216 -128 1466 -128 
C 1760 -128 2208 -7 2470 604 
C 2662 1048 2688 1568 2688 2038 
z
M 1466 -26 
C 1056 -26 813 328 723 816 
C 653 1196 653 1749 653 2109 
C 653 2604 653 3015 736 3407 
C 858 3954 1216 4121 1466 4121 
C 1728 4121 2067 3947 2189 3420 
C 2272 3054 2278 2623 2278 2109 
C 2278 1691 2278 1176 2202 797 
C 2067 96 1690 -26 1466 -26 
z
" transform="scale(0.015625)"/>
       </defs>
       <use xlink:href="#CMR17-31" transform="scale(0.996264)"/>
       <use xlink:href="#CMR17-30" transform="translate(45.690477 0)scale(0.996264)"/>
      </g>
     </g>
    </g>
    <g id="xtick_5">
     <g id="line2d_9">
      <path d="M 208.156008 189.839176 
L 208.156008 23.661476 
" clip-path="url(#pd295d76288)" style="fill: none; stroke: #b0b0b0; stroke-opacity: 0.5; stroke-width: 0.8; stroke-linecap: square"/>
     </g>
     <g id="line2d_10">
      <g>
       <use xlink:href="#m45f86f2509" x="208.156008" y="189.839176" style="stroke: #000000; stroke-width: 0.8"/>
      </g>
     </g>
     <g id="text_5">
      <!-- $\mathdefault{12}$ -->
      <g transform="translate(203.174673 203.700653)scale(0.1 -0.1)">
       <defs>
        <path id="CMR17-32" d="M 2669 990 
L 2554 990 
C 2490 537 2438 460 2413 422 
C 2381 371 1920 371 1830 371 
L 602 371 
C 832 620 1280 1073 1824 1596 
C 2214 1966 2669 2400 2669 3033 
C 2669 3788 2067 4224 1395 4224 
C 691 4224 262 3603 262 3027 
C 262 2777 448 2745 525 2745 
C 589 2745 781 2783 781 3007 
C 781 3206 614 3264 525 3264 
C 486 3264 448 3257 422 3244 
C 544 3788 915 4057 1306 4057 
C 1862 4057 2227 3616 2227 3033 
C 2227 2477 1901 1998 1536 1583 
L 262 147 
L 262 0 
L 2515 0 
L 2669 990 
z
" transform="scale(0.015625)"/>
       </defs>
       <use xlink:href="#CMR17-31" transform="scale(0.996264)"/>
       <use xlink:href="#CMR17-32" transform="translate(45.690477 0)scale(0.996264)"/>
      </g>
     </g>
    </g>
    <g id="xtick_6">
     <g id="line2d_11">
      <path d="M 243.418665 189.839176 
L 243.418665 23.661476 
" clip-path="url(#pd295d76288)" style="fill: none; stroke: #b0b0b0; stroke-opacity: 0.5; stroke-width: 0.8; stroke-linecap: square"/>
     </g>
     <g id="line2d_12">
      <g>
       <use xlink:href="#m45f86f2509" x="243.418665" y="189.839176" style="stroke: #000000; stroke-width: 0.8"/>
      </g>
     </g>
     <g id="text_6">
      <!-- $\mathdefault{14}$ -->
      <g transform="translate(238.437329 203.700653)scale(0.1 -0.1)">
       <use xlink:href="#CMR17-31" transform="scale(0.996264)"/>
       <use xlink:href="#CMR17-34" transform="translate(45.690477 0)scale(0.996264)"/>
      </g>
     </g>
    </g>
    <g id="text_7">
     <!-- $R \, / \, \unit{\kilo \metre}$ -->
     <g transform="translate(131.69439 217.10934)scale(0.1 -0.1)">
      <defs>
       <path id="CMMI12-52" d="M 2355 3917 
C 2413 4153 2438 4166 2688 4166 
L 3149 4166 
C 3699 4166 4109 4000 4109 3503 
C 4109 3177 3942 2240 2656 2240 
L 1933 2240 
L 2355 3917 
z
M 3245 2163 
C 4038 2335 4659 2846 4659 3394 
C 4659 3892 4154 4352 3264 4352 
L 1530 4352 
C 1402 4352 1344 4352 1344 4230 
C 1344 4166 1389 4166 1510 4166 
C 1894 4166 1894 4115 1894 4045 
C 1894 4032 1894 3994 1869 3898 
L 1005 475 
C 947 253 934 190 493 190 
C 346 190 301 190 301 69 
C 301 6 371 6 390 6 
C 506 6 640 19 762 19 
L 1517 19 
C 1632 19 1766 6 1882 6 
C 1933 6 2003 6 2003 126 
C 2003 190 1946 190 1850 190 
C 1459 190 1459 241 1459 304 
C 1459 310 1459 355 1472 405 
L 1901 2112 
L 2669 2112 
C 3277 2112 3392 1731 3392 1522 
C 3392 1426 3328 1179 3283 1014 
C 3213 723 3194 653 3194 532 
C 3194 82 3565 -128 3994 -128 
C 4512 -128 4736 501 4736 589 
C 4736 634 4704 653 4666 653 
C 4614 653 4602 615 4589 564 
C 4435 114 4173 0 4013 0 
C 3853 0 3750 69 3750 355 
C 3750 507 3827 1084 3834 1116 
C 3866 1350 3866 1376 3866 1426 
C 3866 1889 3488 2086 3245 2163 
z
" transform="scale(0.015625)"/>
       <path id="CMMI12-3d" d="M 2746 4563 
C 2746 4569 2784 4665 2784 4678 
C 2784 4755 2720 4800 2669 4800 
C 2637 4800 2579 4800 2528 4659 
L 384 -1364 
C 384 -1370 346 -1466 346 -1479 
C 346 -1556 410 -1600 461 -1600 
C 499 -1600 557 -1594 602 -1460 
L 2746 4563 
z
" transform="scale(0.015625)"/>
       <path id="CMR17-6b" d="M 1670 1679 
C 1664 1692 1632 1730 1632 1749 
C 1632 1762 2086 2175 2144 2226 
C 2509 2532 2739 2563 2906 2570 
L 2906 2735 
C 2867 2735 2854 2735 2848 2729 
L 2534 2722 
C 2355 2722 2080 2722 1907 2735 
L 1907 2570 
C 1997 2563 2061 2513 2061 2423 
C 2061 2296 1933 2175 1926 2175 
L 960 1298 
L 960 4416 
L 198 4345 
L 198 4179 
C 576 4179 634 4141 634 3835 
L 634 439 
C 634 198 608 166 198 166 
L 198 0 
C 352 12 634 12 794 12 
C 954 12 1235 12 1389 0 
L 1389 166 
C 979 166 954 191 954 439 
L 954 1139 
L 1395 1540 
L 2042 586 
C 2118 471 2182 382 2182 299 
C 2182 185 2067 166 1990 166 
L 1990 0 
C 2144 12 2419 12 2579 12 
C 2694 12 2931 6 3040 0 
L 3040 166 
C 2739 166 2669 223 2477 503 
L 1670 1679 
z
" transform="scale(0.015625)"/>
       <path id="CMR17-6d" d="M 4326 1954 
C 4326 2276 4269 2816 3507 2816 
C 3072 2816 2771 2520 2656 2173 
L 2650 2173 
C 2573 2700 2195 2816 1837 2816 
C 1331 2816 1069 2424 973 2166 
L 966 2166 
L 966 2816 
L 211 2745 
L 211 2578 
C 589 2578 646 2540 646 2231 
L 646 443 
C 646 198 621 166 211 166 
L 211 0 
C 365 12 646 12 813 12 
C 979 12 1267 12 1421 0 
L 1421 166 
C 1011 166 986 192 986 443 
L 986 1678 
C 986 2269 1344 2713 1792 2713 
C 2266 2713 2317 2289 2317 1980 
L 2317 443 
C 2317 198 2291 166 1882 166 
L 1882 0 
C 2035 12 2317 12 2483 12 
C 2650 12 2938 12 3091 0 
L 3091 166 
C 2682 166 2656 192 2656 443 
L 2656 1678 
C 2656 2269 3014 2713 3462 2713 
C 3936 2713 3987 2289 3987 1980 
L 3987 443 
C 3987 198 3962 166 3552 166 
L 3552 0 
C 3706 12 3987 12 4154 12 
C 4320 12 4608 12 4762 0 
L 4762 166 
C 4352 166 4326 192 4326 443 
L 4326 1954 
z
" transform="scale(0.015625)"/>
      </defs>
      <use xlink:href="#CMMI12-52" transform="scale(0.996264)"/>
      <use xlink:href="#CMMI12-3d" transform="translate(91.675367 0)scale(0.996264)"/>
      <use xlink:href="#CMR17-6b" transform="translate(157.054691 0)scale(0.996264)"/>
      <use xlink:href="#CMR17-6d" transform="translate(205.347607 0)scale(0.996264)"/>
     </g>
    </g>
   </g>
   <g id="matplotlib.axis_2">
    <g id="ytick_1">
     <g id="line2d_13">
      <path d="M 49.474054 173.221406 
L 243.418665 173.221406 
" clip-path="url(#pd295d76288)" style="fill: none; stroke: #b0b0b0; stroke-opacity: 0.5; stroke-width: 0.8; stroke-linecap: square"/>
     </g>
     <g id="line2d_14">
      <defs>
       <path id="m57fc38dfa4" d="M 0 0 
L -3.5 0 
" style="stroke: #000000; stroke-width: 0.8"/>
      </defs>
      <g>
       <use xlink:href="#m57fc38dfa4" x="49.474054" y="173.221406" style="stroke: #000000; stroke-width: 0.8"/>
      </g>
     </g>
     <g id="text_8">
      <!-- $\mathdefault{0.50}$ -->
      <g transform="translate(24.76264 176.652145)scale(0.1 -0.1)">
       <defs>
        <path id="CMMI12-3a" d="M 1178 307 
C 1178 492 1024 620 870 620 
C 685 620 557 467 557 313 
C 557 128 710 0 864 0 
C 1050 0 1178 153 1178 307 
z
" transform="scale(0.015625)"/>
        <path id="CMR17-35" d="M 730 3750 
C 794 3724 1056 3641 1325 3641 
C 1920 3641 2246 3961 2432 4140 
C 2432 4191 2432 4224 2394 4224 
C 2387 4224 2374 4224 2323 4198 
C 2099 4102 1837 4032 1517 4032 
C 1325 4032 1037 4055 723 4191 
C 653 4224 640 4224 634 4224 
C 602 4224 595 4217 595 4090 
L 595 2231 
C 595 2113 595 2080 659 2080 
C 691 2080 704 2093 736 2139 
C 941 2435 1222 2560 1542 2560 
C 1766 2560 2246 2415 2246 1293 
C 2246 1087 2246 716 2054 422 
C 1894 159 1645 25 1370 25 
C 947 25 518 319 403 812 
C 429 806 480 793 506 793 
C 589 793 749 838 749 1036 
C 749 1209 627 1280 506 1280 
C 358 1280 262 1190 262 1011 
C 262 454 704 -128 1382 -128 
C 2042 -128 2669 441 2669 1267 
C 2669 2054 2170 2662 1549 2662 
C 1222 2662 947 2540 730 2304 
L 730 3750 
z
" transform="scale(0.015625)"/>
       </defs>
       <use xlink:href="#CMR17-30" transform="scale(0.996264)"/>
       <use xlink:href="#CMMI12-3a" transform="translate(45.690477 0)scale(0.996264)"/>
       <use xlink:href="#CMR17-35" transform="translate(72.787654 0)scale(0.996264)"/>
       <use xlink:href="#CMR17-30" transform="translate(118.478131 0)scale(0.996264)"/>
      </g>
     </g>
    </g>
    <g id="ytick_2">
     <g id="line2d_15">
      <path d="M 49.474054 152.449194 
L 243.418665 152.449194 
" clip-path="url(#pd295d76288)" style="fill: none; stroke: #b0b0b0; stroke-opacity: 0.5; stroke-width: 0.8; stroke-linecap: square"/>
     </g>
     <g id="line2d_16">
      <g>
       <use xlink:href="#m57fc38dfa4" x="49.474054" y="152.449194" style="stroke: #000000; stroke-width: 0.8"/>
      </g>
     </g>
     <g id="text_9">
      <!-- $\mathdefault{0.75}$ -->
      <g transform="translate(24.76264 155.879932)scale(0.1 -0.1)">
       <defs>
        <path id="CMR17-37" d="M 2886 3955 
L 2886 4096 
L 1382 4096 
C 634 4096 621 4166 595 4288 
L 480 4288 
L 294 3104 
L 410 3104 
C 429 3226 474 3552 550 3673 
C 589 3724 1062 3724 1171 3724 
L 2579 3724 
L 1869 2670 
C 1395 1961 1069 1003 1069 166 
C 1069 89 1069 -128 1299 -128 
C 1530 -128 1530 89 1530 172 
L 1530 466 
C 1530 1514 1709 2204 2003 2644 
L 2886 3955 
z
" transform="scale(0.015625)"/>
       </defs>
       <use xlink:href="#CMR17-30" transform="scale(0.996264)"/>
       <use xlink:href="#CMMI12-3a" transform="translate(45.690477 0)scale(0.996264)"/>
       <use xlink:href="#CMR17-37" transform="translate(72.787654 0)scale(0.996264)"/>
       <use xlink:href="#CMR17-35" transform="translate(118.478131 0)scale(0.996264)"/>
      </g>
     </g>
    </g>
    <g id="ytick_3">
     <g id="line2d_17">
      <path d="M 49.474054 131.676981 
L 243.418665 131.676981 
" clip-path="url(#pd295d76288)" style="fill: none; stroke: #b0b0b0; stroke-opacity: 0.5; stroke-width: 0.8; stroke-linecap: square"/>
     </g>
     <g id="line2d_18">
      <g>
       <use xlink:href="#m57fc38dfa4" x="49.474054" y="131.676981" style="stroke: #000000; stroke-width: 0.8"/>
      </g>
     </g>
     <g id="text_10">
      <!-- $\mathdefault{1.00}$ -->
      <g transform="translate(24.76264 135.10772)scale(0.1 -0.1)">
       <use xlink:href="#CMR17-31" transform="scale(0.996264)"/>
       <use xlink:href="#CMMI12-3a" transform="translate(45.690477 0)scale(0.996264)"/>
       <use xlink:href="#CMR17-30" transform="translate(72.787654 0)scale(0.996264)"/>
       <use xlink:href="#CMR17-30" transform="translate(118.478131 0)scale(0.996264)"/>
      </g>
     </g>
    </g>
    <g id="ytick_4">
     <g id="line2d_19">
      <path d="M 49.474054 110.904769 
L 243.418665 110.904769 
" clip-path="url(#pd295d76288)" style="fill: none; stroke: #b0b0b0; stroke-opacity: 0.5; stroke-width: 0.8; stroke-linecap: square"/>
     </g>
     <g id="line2d_20">
      <g>
       <use xlink:href="#m57fc38dfa4" x="49.474054" y="110.904769" style="stroke: #000000; stroke-width: 0.8"/>
      </g>
     </g>
     <g id="text_11">
      <!-- $\mathdefault{1.25}$ -->
      <g transform="translate(24.76264 114.335507)scale(0.1 -0.1)">
       <use xlink:href="#CMR17-31" transform="scale(0.996264)"/>
       <use xlink:href="#CMMI12-3a" transform="translate(45.690477 0)scale(0.996264)"/>
       <use xlink:href="#CMR17-32" transform="translate(72.787654 0)scale(0.996264)"/>
       <use xlink:href="#CMR17-35" transform="translate(118.478131 0)scale(0.996264)"/>
      </g>
     </g>
    </g>
    <g id="ytick_5">
     <g id="line2d_21">
      <path d="M 49.474054 90.132556 
L 243.418665 90.132556 
" clip-path="url(#pd295d76288)" style="fill: none; stroke: #b0b0b0; stroke-opacity: 0.5; stroke-width: 0.8; stroke-linecap: square"/>
     </g>
     <g id="line2d_22">
      <g>
       <use xlink:href="#m57fc38dfa4" x="49.474054" y="90.132556" style="stroke: #000000; stroke-width: 0.8"/>
      </g>
     </g>
     <g id="text_12">
      <!-- $\mathdefault{1.50}$ -->
      <g transform="translate(24.76264 93.563295)scale(0.1 -0.1)">
       <use xlink:href="#CMR17-31" transform="scale(0.996264)"/>
       <use xlink:href="#CMMI12-3a" transform="translate(45.690477 0)scale(0.996264)"/>
       <use xlink:href="#CMR17-35" transform="translate(72.787654 0)scale(0.996264)"/>
       <use xlink:href="#CMR17-30" transform="translate(118.478131 0)scale(0.996264)"/>
      </g>
     </g>
    </g>
    <g id="ytick_6">
     <g id="line2d_23">
      <path d="M 49.474054 69.360344 
L 243.418665 69.360344 
" clip-path="url(#pd295d76288)" style="fill: none; stroke: #b0b0b0; stroke-opacity: 0.5; stroke-width: 0.8; stroke-linecap: square"/>
     </g>
     <g id="line2d_24">
      <g>
       <use xlink:href="#m57fc38dfa4" x="49.474054" y="69.360344" style="stroke: #000000; stroke-width: 0.8"/>
      </g>
     </g>
     <g id="text_13">
      <!-- $\mathdefault{1.75}$ -->
      <g transform="translate(24.76264 72.791082)scale(0.1 -0.1)">
       <use xlink:href="#CMR17-31" transform="scale(0.996264)"/>
       <use xlink:href="#CMMI12-3a" transform="translate(45.690477 0)scale(0.996264)"/>
       <use xlink:href="#CMR17-37" transform="translate(72.787654 0)scale(0.996264)"/>
       <use xlink:href="#CMR17-35" transform="translate(118.478131 0)scale(0.996264)"/>
      </g>
     </g>
    </g>
    <g id="ytick_7">
     <g id="line2d_25">
      <path d="M 49.474054 48.588131 
L 243.418665 48.588131 
" clip-path="url(#pd295d76288)" style="fill: none; stroke: #b0b0b0; stroke-opacity: 0.5; stroke-width: 0.8; stroke-linecap: square"/>
     </g>
     <g id="line2d_26">
      <g>
       <use xlink:href="#m57fc38dfa4" x="49.474054" y="48.588131" style="stroke: #000000; stroke-width: 0.8"/>
      </g>
     </g>
     <g id="text_14">
      <!-- $\mathdefault{2.00}$ -->
      <g transform="translate(24.76264 52.01887)scale(0.1 -0.1)">
       <use xlink:href="#CMR17-32" transform="scale(0.996264)"/>
       <use xlink:href="#CMMI12-3a" transform="translate(45.690477 0)scale(0.996264)"/>
       <use xlink:href="#CMR17-30" transform="translate(72.787654 0)scale(0.996264)"/>
       <use xlink:href="#CMR17-30" transform="translate(118.478131 0)scale(0.996264)"/>
      </g>
     </g>
    </g>
    <g id="ytick_8">
     <g id="line2d_27">
      <path d="M 49.474054 27.815919 
L 243.418665 27.815919 
" clip-path="url(#pd295d76288)" style="fill: none; stroke: #b0b0b0; stroke-opacity: 0.5; stroke-width: 0.8; stroke-linecap: square"/>
     </g>
     <g id="line2d_28">
      <g>
       <use xlink:href="#m57fc38dfa4" x="49.474054" y="27.815919" style="stroke: #000000; stroke-width: 0.8"/>
      </g>
     </g>
     <g id="text_15">
      <!-- $\mathdefault{2.25}$ -->
      <g transform="translate(24.76264 31.246657)scale(0.1 -0.1)">
       <use xlink:href="#CMR17-32" transform="scale(0.996264)"/>
       <use xlink:href="#CMMI12-3a" transform="translate(45.690477 0)scale(0.996264)"/>
       <use xlink:href="#CMR17-32" transform="translate(72.787654 0)scale(0.996264)"/>
       <use xlink:href="#CMR17-35" transform="translate(118.478131 0)scale(0.996264)"/>
      </g>
     </g>
    </g>
    <g id="text_16">
     <!-- $M \, / \, M_\odot$ -->
     <g transform="translate(18.27198 124.222974)rotate(-90)scale(0.1 -0.1)">
      <defs>
       <path id="CMMI12-4d" d="M 5811 3886 
C 5869 4102 5882 4166 6336 4166 
C 6458 4166 6515 4166 6515 4287 
C 6515 4352 6470 4352 6349 4352 
L 5581 4352 
C 5421 4352 5414 4345 5344 4243 
L 3008 567 
L 2528 4211 
C 2509 4352 2502 4352 2336 4352 
L 1542 4352 
C 1421 4352 1363 4352 1363 4230 
C 1363 4166 1421 4166 1517 4166 
C 1907 4166 1907 4115 1907 4045 
C 1907 4032 1907 3994 1882 3898 
L 1062 650 
C 986 344 838 204 410 185 
C 390 185 314 179 314 70 
C 314 0 371 0 397 0 
C 525 0 851 12 979 12 
L 1286 12 
C 1376 12 1485 0 1574 0 
C 1619 0 1690 0 1690 121 
C 1690 179 1626 185 1600 185 
C 1389 191 1184 230 1184 459 
C 1184 523 1184 529 1210 618 
L 2093 4128 
L 2099 4128 
L 2630 172 
C 2650 19 2656 0 2714 0 
C 2784 0 2816 51 2848 108 
L 5421 4159 
L 5427 4159 
L 4499 472 
C 4442 249 4429 185 3981 185 
C 3859 185 3795 185 3795 70 
C 3795 0 3853 0 3891 0 
C 4000 0 4128 12 4237 12 
L 4992 12 
C 5101 12 5235 0 5344 0 
C 5395 0 5466 0 5466 121 
C 5466 185 5408 185 5312 185 
C 4922 185 4922 236 4922 300 
C 4922 306 4922 351 4934 402 
L 5811 3886 
z
" transform="scale(0.015625)"/>
       <path id="CMSY10-c" d="M 4621 1606 
C 4621 2787 3661 3744 2490 3744 
C 1299 3744 352 2774 352 1606 
C 352 419 1312 -545 2483 -545 
C 3674 -545 4621 432 4621 1606 
z
M 2490 -384 
C 1389 -384 512 516 512 1606 
C 512 2709 1408 3584 2483 3584 
C 3584 3584 4461 2690 4461 1606 
C 4461 497 3565 -384 2490 -384 
z
M 2925 1606 
C 2925 1849 2726 2048 2490 2048 
C 2234 2048 2048 1836 2048 1606 
C 2048 1363 2246 1164 2483 1164 
C 2739 1164 2925 1375 2925 1606 
z
" transform="scale(0.015625)"/>
      </defs>
      <use xlink:href="#CMMI12-4d" transform="scale(0.996264)"/>
      <use xlink:href="#CMMI12-3d" transform="translate(121.384484 0)scale(0.996264)"/>
      <use xlink:href="#CMMI12-4d" transform="translate(186.763808 0)scale(0.996264)"/>
      <use xlink:href="#CMSY10-c" transform="translate(281.137233 -14.943915)scale(0.697382)"/>
     </g>
    </g>
   </g>
   <g id="line2d_29">
    <path d="M 260.2 170.506211 
L 236.895073 165.645006 
L 220.841749 162.517562 
L 210.412818 160.668324 
L 200.230726 159.055672 
L 190.286657 157.717801 
L 180.624689 156.688154 
L 171.253638 155.993524 
L 162.208767 155.652378 
L 153.507706 155.673569 
L 145.176904 156.055563 
L 137.251622 156.786258 
L 129.758307 157.843437 
L 122.714592 159.195817 
L 116.164553 160.804546 
L 110.117008 162.625052 
L 104.607218 164.608981 
L 99.66163 166.706129 
L 95.306692 168.866109 
L 91.577666 171.039701 
L 88.500999 173.179718 
L 86.138401 175.241418 
L 85.230388 176.229562 
L 84.516319 177.182381 
L 84.005011 178.094847 
L 83.705278 178.961998 
L 83.617121 179.77891 
L 83.758172 180.540668 
L 84.12843 181.24236 
L 84.736711 181.879076 
L 85.583015 182.445949 
L 86.667341 182.938215 
L 87.980875 183.35135 
L 89.514801 183.68124 
L 91.242671 183.924449 
L 95.183273 184.142473 
L 99.476501 184.004773 
L 103.672757 183.543722 
L 107.357705 182.8287 
L 110.187533 181.95758 
L 112.021191 181.037586 
L 112.576578 180.590078 
L 112.911573 180.164468 
L 113.034993 179.768668 
L 112.990914 179.408676 
L 112.788154 179.088669 
L 112.038823 178.577148 
L 110.980943 178.237752 
L 109.773197 178.057657 
L 107.939539 178.034773 
L 106.343904 178.223875 
L 104.818794 178.644357 
L 104.087093 179.091182 
L 103.990121 179.368133 
L 104.201697 179.563879 
L 104.739453 179.688294 
L 105.612203 179.642199 
L 106.158775 179.41812 
L 106.149959 179.332259 
L 106.123512 179.317052 
L 105.947199 179.278686 
L 105.947199 179.278686 
" clip-path="url(#pd295d76288)" style="fill: none; stroke: #440154; stroke-width: 1.5; stroke-linecap: square"/>
   </g>
   <g id="line2d_30">
    <path d="M 260.2 163.298496 
L 242.457757 157.840984 
L 213.09278 148.753028 
L 198.987718 144.660565 
L 189.810611 142.207685 
L 180.836265 140.029777 
L 172.073495 138.170154 
L 163.539932 136.666676 
L 155.253208 135.549704 
L 147.239769 134.840284 
L 139.508432 134.548765 
L 132.085643 134.673965 
L 125.006664 135.203015 
L 118.271497 136.11188 
L 111.915403 137.366546 
L 105.947199 138.924737 
L 100.375699 140.738004 
L 95.227351 142.754004 
L 90.502155 144.918749 
L 86.217742 147.178683 
L 82.365297 149.482437 
L 78.953635 151.782208 
L 75.982756 154.034732 
L 73.452661 156.201895 
L 71.354533 158.251046 
L 69.679556 160.155099 
L 68.418916 161.892534 
L 67.554981 163.447381 
L 67.061304 164.809251 
L 66.902622 165.973428 
L 67.034857 166.940982 
L 67.413931 167.718777 
L 67.986949 168.319235 
L 68.683386 168.759693 
L 69.847054 169.167295 
L 70.99309 169.342163 
L 72.606357 169.32281 
L 73.990416 169.068332 
L 74.880798 168.684517 
L 74.933692 168.613406 
L 74.933692 168.613406 
" clip-path="url(#pd295d76288)" style="fill: none; stroke: #414487; stroke-width: 1.5; stroke-linecap: square"/>
   </g>
   <g id="line2d_31">
    <path d="M 34.222955 214.09656 
L 42.668362 213.534906 
L 50.426146 212.798371 
L 57.998802 211.838583 
L 64.989623 210.709941 
L 71.063616 209.517039 
L 77.551945 208.001242 
L 82.691477 206.607391 
L 88.069032 204.95113 
L 93.666979 202.995686 
L 99.476501 200.697793 
L 105.479968 198.013469 
L 109.579252 195.987092 
L 113.740246 193.759427 
L 117.954133 191.31849 
L 122.220915 188.647239 
L 126.522959 185.738618 
L 130.842634 182.587396 
L 135.162309 179.190455 
L 139.481985 175.533567 
L 143.775213 171.623397 
L 148.033179 167.455987 
L 152.22062 163.052938 
L 156.337535 158.409005 
L 160.357478 153.545912 
L 164.262817 148.481829 
L 168.035921 143.239177 
L 171.659159 137.844792 
L 175.106084 132.340573 
L 178.385511 126.73081 
L 181.453362 121.08754 
L 184.318453 115.421648 
L 186.954336 109.791925 
L 189.361012 104.22543 
L 191.529666 98.762827 
L 193.442665 93.459542 
L 195.108825 88.334246 
L 196.528147 83.418084 
L 197.691815 78.755444 
L 198.608644 74.363689 
L 199.278635 70.272289 
L 199.710602 66.495679 
L 199.913362 63.046336 
L 199.895731 59.934627 
L 199.666524 57.168653 
L 199.234556 54.754124 
L 198.608644 52.694255 
L 197.815234 50.962907 
L 196.854327 49.572185 
L 195.752369 48.491926 
L 194.50936 47.729763 
L 193.151748 47.252179 
L 191.679532 47.062891 
L 190.11916 47.125879 
L 188.479446 47.429511 
L 186.769207 47.960788 
L 184.997259 48.705544 
L 183.190048 49.625606 
L 180.404298 51.338057 
L 177.583285 53.365472 
L 174.753457 55.658438 
L 171.950076 58.156571 
L 168.273944 61.749754 
L 164.747678 65.512422 
L 161.38891 69.382114 
L 157.518834 74.210723 
L 154.045462 78.929876 
L 151.030505 83.413654 
L 148.509225 87.569973 
L 146.499254 91.328405 
L 145.265061 94.009343 
L 144.374678 96.364225 
L 144.374678 96.364225 
" clip-path="url(#pd295d76288)" style="fill: none; stroke: #2a788e; stroke-width: 1.5; stroke-linecap: square"/>
   </g>
   <g id="line2d_32">
    <path d="M 260.2 193.70105 
L 253.97983 192.645819 
L 247.385714 191.288905 
L 241.611454 189.840806 
L 236.560078 188.297416 
L 232.14343 186.655143 
L 228.273354 184.909995 
L 224.879323 183.060159 
L 221.91726 181.100639 
L 219.325455 179.026352 
L 217.059829 176.832542 
L 215.093936 174.513566 
L 213.383697 172.065313 
L 211.902666 169.483352 
L 210.624394 166.764468 
L 209.531252 163.906894 
L 208.605607 160.908335 
L 207.821013 157.766894 
L 206.886553 152.787719 
L 206.1813 147.49013 
L 205.65236 141.887638 
L 205.158683 133.973018 
L 204.744346 123.461582 
L 203.853964 98.832941 
L 203.175158 87.520416 
L 202.417011 78.696674 
L 201.702942 72.311453 
L 200.530459 64.220254 
L 199.49021 58.542264 
L 198.300096 53.250355 
L 197.462608 50.205126 
L 197.03064 49.623141 
L 196.510516 49.209368 
L 195.919867 48.920802 
L 194.579886 48.648444 
L 193.098854 48.71475 
L 191.494403 49.069369 
L 189.801796 49.673427 
L 188.047478 50.498018 
L 185.323438 52.089689 
L 182.528873 54.041503 
L 179.716676 56.283981 
L 176.92211 58.758391 
L 173.26361 62.323752 
L 169.74616 66.093214 
L 166.422654 69.965507 
L 162.596656 74.82631 
L 159.19381 79.582958 
L 156.813581 83.234265 
L 154.750715 86.69673 
L 152.652587 90.696415 
L 151.356684 93.594306 
L 150.404593 96.192516 
L 150.051966 97.373718 
L 150.051966 97.373718 
" clip-path="url(#pd295d76288)" style="fill: none; stroke: #22a884; stroke-width: 1.5; stroke-linecap: square"/>
   </g>
   <g id="line2d_33">
    <path d="M 211.89385 169.472425 
L 210.756629 167.037162 
L 209.769275 164.506531 
L 208.922971 161.886266 
L 208.191271 159.17926 
L 207.556543 156.388372 
L 207.001156 153.516479 
L 206.507479 150.566294 
L 206.066696 147.54037 
L 205.669991 144.441026 
L 205.299733 141.270278 
L 204.964738 138.029864 
L 204.647374 134.720956 
L 204.338826 131.344272 
L 204.039093 127.899764 
L 203.739361 124.38658 
L 203.457259 120.802841 
L 203.166342 117.14541 
L 202.875426 113.40955 
L 202.584509 109.588583 
L 202.302407 105.673345 
L 202.029122 101.651458 
L 201.764652 97.506402 
L 201.526629 93.21607 
L 201.306237 88.794538 
L 201.103477 84.355037 
L 200.883085 80.000301 
L 200.627431 75.830208 
L 200.310067 71.935805 
L 199.8781 68.725155 
L 199.269819 66.077324 
L 198.529303 63.791318 
L 197.665368 61.843651 
L 196.686829 60.216099 
L 195.602503 58.89227 
L 194.421204 57.85554 
L 193.160564 57.088645 
L 191.811767 56.576054 
L 190.410076 56.300505 
L 188.946676 56.245792 
L 187.430382 56.395984 
L 185.870009 56.735398 
L 184.28319 57.248442 
L 182.669923 57.919761 
L 181.03021 58.735354 
L 179.390496 59.680669 
L 177.741967 60.743171 
L 176.093438 61.908997 
L 174.453724 63.166988 
L 172.822827 64.504844 
L 171.218376 65.911496 
L 169.631556 67.376845 
L 168.071184 68.890891 
L 166.546074 70.444548 
L 165.056226 72.029377 
L 163.601642 73.636611 
L 162.199951 75.259361 
L 160.833523 76.889882 
L 159.519989 78.522137 
L 158.259349 80.149401 
L 157.042788 81.765662 
L 155.896751 83.366502 
L 154.794793 84.946052 
L 153.763361 86.499999 
L 152.784822 88.023916 
L 151.876809 89.513948 
L 151.021689 90.966094 
L 150.245911 92.37711 
L 149.523026 93.743565 
L 148.870667 95.062301 
L 148.280018 96.331329 
L 147.759893 97.547508 
L 147.310295 98.708858 
L 146.922405 99.812922 
L 146.596226 100.858394 
" clip-path="url(#pd295d76288)" style="fill: none; stroke: #7ad151; stroke-width: 1.5; stroke-linecap: square"/>
   </g>
   <g id="line2d_34">
    <path d="M 260.2 193.701816 
L 253.856411 192.622512 
L 247.262294 191.261149 
L 241.49685 189.808144 
L 236.445474 188.259377 
L 232.037642 186.611219 
L 228.167566 184.859766 
L 224.782351 183.002984 
L 221.829103 181.035941 
L 219.246114 178.953528 
L 216.989304 176.750947 
L 215.023411 174.422514 
L 213.313172 171.964147 
L 211.840956 169.371308 
L 210.5715 166.640862 
L 209.487174 163.77109 
L 208.570345 160.759621 
L 207.78575 157.604701 
L 206.860106 152.604183 
L 206.154853 147.284357 
L 205.634728 141.658799 
L 205.149867 133.713127 
L 204.735531 123.163937 
L 203.836333 98.468724 
L 203.307393 89.386976 
L 202.593324 80.488476 
L 201.650048 71.926616 
L 200.786113 65.812715 
L 199.781127 60.025756 
L 198.626275 54.616316 
L 197.330373 49.624362 
L 195.89342 45.085416 
L 194.315416 41.02346 
L 192.613992 37.453846 
L 191.423878 35.352069 
L 190.172054 33.473514 
L 188.884967 31.816442 
L 187.553801 30.377966 
L 186.187373 29.154189 
L 184.803314 28.155484 
L 183.42807 27.365279 
L 182.02638 26.758098 
L 180.607058 26.326589 
L 179.170105 26.063154 
L 177.71552 25.959487 
L 175.529235 26.085928 
L 173.334135 26.523865 
L 171.139035 27.242968 
L 168.970381 28.212996 
L 168.970381 28.212996 
" clip-path="url(#pd295d76288)" style="fill: none; stroke: #fde725; stroke-width: 1.5; stroke-linecap: square"/>
   </g>
   <g id="patch_3">
    <path d="M 49.474054 189.839176 
L 49.474054 23.661476 
" style="fill: none; stroke: #000000; stroke-width: 0.8; stroke-linejoin: miter; stroke-linecap: square"/>
   </g>
   <g id="patch_4">
    <path d="M 243.418665 189.839176 
L 243.418665 23.661476 
" style="fill: none; stroke: #000000; stroke-width: 0.8; stroke-linejoin: miter; stroke-linecap: square"/>
   </g>
   <g id="patch_5">
    <path d="M 49.474054 189.839176 
L 243.418665 189.839176 
" style="fill: none; stroke: #000000; stroke-width: 0.8; stroke-linejoin: miter; stroke-linecap: square"/>
   </g>
   <g id="patch_6">
    <path d="M 49.474054 23.661476 
L 243.418665 23.661476 
" style="fill: none; stroke: #000000; stroke-width: 0.8; stroke-linejoin: miter; stroke-linecap: square"/>
   </g>
   <g id="text_17">
    <!-- Mass-radius relations -->
    <g transform="translate(100.242062 17.661476)scale(0.1 -0.1)">
     <defs>
      <path id="SFRM3583-4d" d="M 474 4352 
L 474 4211 
L 582 4211 
C 736 4211 890 4192 890 3975 
C 890 3924 883 3873 883 3829 
L 883 796 
C 883 733 890 669 890 599 
C 890 395 832 140 474 140 
L 474 0 
L 1382 0 
L 1382 140 
C 1005 140 973 401 973 624 
L 979 4217 
C 1005 4083 1069 3950 1114 3822 
C 1562 2631 1965 1427 2394 229 
C 2419 153 2458 0 2515 0 
C 2592 0 2790 663 2906 988 
C 3283 2013 3642 3058 4013 4096 
C 4026 4141 4051 4185 4058 4236 
L 4064 363 
C 4064 191 3994 140 3654 140 
L 3654 0 
L 4774 0 
L 4774 140 
L 4666 140 
C 4499 140 4365 159 4365 408 
L 4365 3797 
C 4365 3841 4358 3892 4358 3943 
C 4358 4198 4506 4211 4774 4211 
L 4774 4352 
L 4096 4352 
L 4032 4339 
L 3917 4052 
L 2624 421 
L 1331 4052 
L 1216 4339 
L 1152 4352 
L 474 4352 
z
" transform="scale(0.015625)"/>
      <path id="SFRM3583-61" d="M 576 2058 
C 659 2401 883 2738 1274 2738 
C 1619 2738 1869 2408 1920 2090 
C 1933 2006 1933 1915 1933 1831 
L 1933 1579 
C 1318 1579 474 1436 320 659 
C 314 620 314 575 314 536 
C 314 102 800 -64 1133 -64 
C 1446 -64 1856 141 1939 497 
L 1946 497 
C 1946 225 2125 -45 2394 -45 
C 2746 -45 2829 335 2829 614 
L 2829 905 
L 2746 905 
L 2746 575 
C 2746 368 2701 70 2470 70 
C 2208 70 2195 413 2195 588 
L 2195 1792 
C 2195 1954 2189 2123 2125 2278 
C 1990 2595 1638 2816 1293 2816 
C 800 2816 480 2375 480 1896 
C 480 1773 570 1702 672 1702 
C 774 1702 858 1786 858 1890 
C 858 1987 794 2077 672 2077 
C 640 2077 608 2071 576 2058 
z
M 1933 1507 
L 1933 873 
C 1933 445 1670 44 1229 12 
L 1190 12 
C 896 12 627 245 627 562 
C 627 1236 1363 1507 1933 1507 
z
" transform="scale(0.015625)"/>
      <path id="SFRM3583-73" d="M 422 357 
C 576 111 781 -64 1126 -64 
C 1549 -64 2067 117 2067 740 
C 2067 1051 1901 1337 1600 1486 
C 1216 1680 538 1590 384 2076 
C 371 2115 365 2160 365 2206 
C 365 2588 749 2751 1094 2751 
C 1466 2751 1786 2537 1837 1927 
C 1843 1894 1837 1810 1882 1810 
C 1920 1810 1926 1842 1926 1881 
L 1926 2757 
C 1926 2783 1926 2816 1901 2816 
C 1869 2816 1766 2634 1734 2537 
C 1562 2721 1376 2816 1120 2816 
C 730 2816 192 2689 192 2112 
C 192 1433 1030 1433 1408 1300 
C 1670 1211 1894 989 1894 704 
L 1894 691 
C 1882 291 1568 69 1139 69 
C 544 69 371 621 294 1078 
C 288 1116 288 1192 237 1192 
C 198 1192 192 1167 192 1135 
L 192 50 
C 192 31 192 6 211 0 
L 218 0 
C 262 0 371 279 422 405 
L 422 357 
z
" transform="scale(0.015625)"/>
      <path id="SFRM3583-2d" d="M 64 1497 
L 64 1280 
L 1587 1280 
L 1587 1497 
L 64 1497 
z
" transform="scale(0.015625)"/>
      <path id="SFRM3583-72" d="M 288 2744 
L 288 2602 
L 352 2602 
C 557 2602 666 2557 666 2273 
L 666 360 
C 666 153 512 140 288 140 
L 288 0 
L 1389 0 
L 1389 140 
L 1261 140 
C 1075 140 922 160 922 405 
L 922 1349 
C 922 1898 1037 2738 1658 2738 
C 1728 2738 1798 2719 1862 2693 
C 1786 2660 1722 2609 1722 2518 
C 1722 2428 1792 2337 1901 2337 
C 1997 2337 2074 2421 2074 2518 
C 2074 2732 1837 2816 1664 2816 
C 1274 2816 979 2434 922 2079 
L 915 2816 
L 288 2744 
z
" transform="scale(0.015625)"/>
      <path id="SFRM3583-64" d="M 1882 4408 
L 1882 4265 
L 1952 4265 
C 2150 4265 2259 4207 2259 3960 
L 2253 2305 
C 2131 2603 1766 2805 1459 2805 
C 710 2805 269 2039 269 1357 
C 269 714 653 -19 1338 -64 
L 1395 -64 
C 1741 -64 2118 150 2246 468 
L 2253 -64 
L 2893 -26 
L 2893 117 
L 2816 117 
C 2605 117 2515 195 2515 422 
L 2515 4480 
L 1882 4408 
z
M 595 1214 
L 595 1312 
C 595 1760 659 2292 1056 2577 
C 1190 2675 1344 2727 1498 2727 
C 1862 2727 2259 2376 2259 2000 
C 2259 1928 2253 1850 2253 1779 
L 2253 734 
C 2253 383 1811 13 1440 13 
C 947 13 678 520 621 948 
C 608 1039 608 1123 595 1214 
z
" transform="scale(0.015625)"/>
      <path id="SFRM3583-69" d="M 326 2732 
L 326 2590 
L 358 2590 
C 563 2590 678 2558 678 2250 
L 678 359 
C 678 153 531 140 307 140 
L 307 0 
L 1274 0 
L 1274 140 
L 1190 140 
C 1056 140 934 153 934 372 
L 934 2803 
L 326 2732 
z
M 698 4160 
C 595 4160 531 4044 531 3960 
C 531 3864 608 3748 730 3748 
C 858 3748 934 3857 934 3954 
C 934 4044 858 4160 736 4160 
C 723 4166 710 4160 698 4160 
z
" transform="scale(0.015625)"/>
      <path id="SFRM3583-75" d="M 301 2744 
L 301 2600 
L 358 2600 
C 570 2600 685 2568 685 2183 
C 685 2099 678 2014 678 1929 
L 678 887 
C 678 418 762 -64 1459 -64 
C 1856 -64 2170 216 2266 587 
L 2272 -64 
L 2906 -25 
L 2906 118 
L 2842 118 
C 2675 118 2528 137 2528 411 
L 2528 2816 
L 1888 2744 
L 1888 2600 
L 1958 2600 
C 2176 2600 2266 2529 2266 2262 
L 2266 1063 
C 2266 587 2042 14 1491 14 
C 1318 14 1133 72 1030 222 
C 947 339 941 502 941 652 
L 941 2816 
L 301 2744 
z
" transform="scale(0.015625)"/>
      <path id="SFRM3583-65" d="M 563 1515 
L 2246 1515 
C 2259 1515 2285 1508 2310 1508 
C 2355 1508 2374 1534 2374 1573 
C 2374 2149 2099 2816 1382 2816 
C 614 2816 237 2019 237 1385 
C 237 751 589 33 1350 -64 
C 1376 -58 1402 -64 1427 -64 
C 1869 -64 2208 245 2355 665 
C 2362 685 2368 710 2368 730 
C 2368 749 2362 768 2336 768 
C 2272 768 2266 665 2246 607 
C 2118 297 1843 26 1485 26 
C 1216 26 960 181 813 400 
C 576 723 563 1137 563 1517 
L 563 1515 
z
M 570 1595 
C 582 2099 832 2738 1370 2738 
C 1818 2738 2010 2260 2061 1886 
C 2067 1789 2067 1692 2080 1595 
L 570 1595 
z
" transform="scale(0.015625)"/>
      <path id="SFRM3583-6c" d="M 307 4408 
L 307 4266 
L 384 4266 
C 608 4266 678 4163 678 3950 
L 678 373 
C 678 179 595 140 307 140 
L 307 0 
L 1306 0 
L 1306 140 
L 1203 140 
C 1062 140 934 160 934 366 
L 934 4480 
L 307 4408 
z
" transform="scale(0.015625)"/>
      <path id="SFRM3583-74" d="M 845 3968 
C 845 3593 762 2687 109 2687 
L 109 2611 
L 666 2611 
L 666 1118 
C 666 1028 659 924 659 827 
C 659 427 787 -64 1318 -64 
C 1811 -64 1907 485 1907 885 
L 1907 1137 
L 1824 1137 
C 1824 1040 1830 944 1830 840 
C 1830 549 1773 20 1376 20 
C 1005 20 922 478 922 827 
C 922 937 928 1040 928 1150 
L 928 2611 
L 1811 2611 
L 1811 2752 
L 928 2752 
L 928 3968 
L 845 3968 
z
" transform="scale(0.015625)"/>
      <path id="SFRM3583-6f" d="M 1350 2816 
C 614 2725 237 2032 237 1359 
C 237 673 685 -64 1440 -64 
L 1504 -64 
C 2240 26 2624 712 2624 1366 
C 2624 2021 2182 2816 1440 2816 
C 1408 2822 1382 2816 1350 2816 
z
M 563 1256 
L 563 1359 
C 563 1845 621 2388 1114 2660 
C 1197 2699 1293 2731 1389 2738 
L 1434 2738 
C 2054 2738 2298 2006 2298 1482 
C 2298 971 2246 240 1606 46 
C 1549 33 1491 20 1434 20 
C 960 20 653 499 595 958 
C 576 1055 576 1159 563 1256 
z
" transform="scale(0.015625)"/>
      <path id="SFRM3583-6e" d="M 301 2744 
L 301 2602 
L 365 2602 
C 570 2602 678 2557 678 2273 
L 678 360 
C 678 153 525 140 301 140 
L 301 0 
L 1318 0 
L 1318 140 
L 1229 140 
C 1082 140 941 160 941 360 
L 941 1775 
C 979 2215 1203 2738 1709 2738 
C 2112 2738 2266 2415 2266 1950 
L 2266 360 
C 2266 153 2112 140 1888 140 
L 1888 0 
L 2906 0 
L 2906 140 
L 2803 140 
C 2656 140 2528 160 2528 386 
L 2528 1885 
C 2528 2299 2451 2816 1760 2816 
C 1414 2816 1178 2628 1024 2350 
C 986 2279 947 2202 934 2124 
L 928 2816 
L 301 2744 
z
" transform="scale(0.015625)"/>
     </defs>
     <use xlink:href="#SFRM3583-4d" transform="scale(0.996264)"/>
     <use xlink:href="#SFRM3583-61" transform="translate(81.721073 0)scale(0.996264)"/>
     <use xlink:href="#SFRM3583-73" transform="translate(126.29954 0)scale(0.996264)"/>
     <use xlink:href="#SFRM3583-73" transform="translate(161.453935 0)scale(0.996264)"/>
     <use xlink:href="#SFRM3583-2d" transform="translate(196.60833 0)scale(0.996264)"/>
     <use xlink:href="#SFRM3583-72" transform="translate(226.306624 0)scale(0.996264)"/>
     <use xlink:href="#SFRM3583-61" transform="translate(260.96497 0)scale(0.996264)"/>
     <use xlink:href="#SFRM3583-64" transform="translate(305.543436 0)scale(0.996264)"/>
     <use xlink:href="#SFRM3583-69" transform="translate(355.081865 0)scale(0.996264)"/>
     <use xlink:href="#SFRM3583-75" transform="translate(379.820196 0)scale(0.996264)"/>
     <use xlink:href="#SFRM3583-73" transform="translate(429.358625 0)scale(0.996264)"/>
     <use xlink:href="#SFRM3583-72" transform="translate(494.211313 0)scale(0.996264)"/>
     <use xlink:href="#SFRM3583-65" transform="translate(528.869659 0)scale(0.996264)"/>
     <use xlink:href="#SFRM3583-6c" transform="translate(568.488058 0)scale(0.996264)"/>
     <use xlink:href="#SFRM3583-61" transform="translate(593.22639 0)scale(0.996264)"/>
     <use xlink:href="#SFRM3583-74" transform="translate(637.804857 0)scale(0.996264)"/>
     <use xlink:href="#SFRM3583-69" transform="translate(672.463203 0)scale(0.996264)"/>
     <use xlink:href="#SFRM3583-6f" transform="translate(697.201534 0)scale(0.996264)"/>
     <use xlink:href="#SFRM3583-6e" transform="translate(741.780001 0)scale(0.996264)"/>
     <use xlink:href="#SFRM3583-73" transform="translate(791.318429 0)scale(0.996264)"/>
    </g>
   </g>
   <g id="legend_1">
    <g id="patch_7">
     <path d="M 55.305054 99.98112 
L 130.88152 99.98112 
Q 132.54752 99.98112 132.54752 98.31512 
L 132.54752 29.492476 
Q 132.54752 27.826476 130.88152 27.826476 
L 55.305054 27.826476 
Q 53.639054 27.826476 53.639054 29.492476 
L 53.639054 98.31512 
Q 53.639054 99.98112 55.305054 99.98112 
z
" style="fill: #ffffff; opacity: 0.8; stroke: #cccccc; stroke-linejoin: miter"/>
    </g>
    <g id="line2d_35">
     <path d="M 56.971054 34.073976 
L 61.969054 34.073976 
L 66.967054 34.073976 
" style="fill: none; stroke: #440154; stroke-width: 1.5; stroke-linecap: square"/>
    </g>
    <g id="text_18">
     <!-- Ideal -->
     <g transform="translate(73.631054 36.989476)scale(0.0833 -0.0833)">
      <defs>
       <path id="SFRM3583-49" d="M 448 4352 
L 448 4211 
L 582 4211 
C 736 4211 877 4185 877 3950 
L 877 554 
C 877 503 883 446 883 389 
C 883 159 717 140 544 140 
L 448 140 
L 448 0 
L 1619 0 
L 1619 140 
L 1517 140 
C 1338 140 1184 159 1184 389 
C 1184 446 1190 503 1190 554 
L 1190 3950 
C 1190 4198 1338 4211 1536 4211 
L 1619 4211 
L 1619 4352 
L 448 4352 
z
" transform="scale(0.015625)"/>
      </defs>
      <use xlink:href="#SFRM3583-49" transform="scale(0.996264)"/>
      <use xlink:href="#SFRM3583-64" transform="translate(32.120788 0)scale(0.996264)"/>
      <use xlink:href="#SFRM3583-65" transform="translate(81.659217 0)scale(0.996264)"/>
      <use xlink:href="#SFRM3583-61" transform="translate(121.277616 0)scale(0.996264)"/>
      <use xlink:href="#SFRM3583-6c" transform="translate(165.856082 0)scale(0.996264)"/>
     </g>
    </g>
    <g id="line2d_36">
     <path d="M 56.971054 45.68325 
L 61.969054 45.68325 
L 66.967054 45.68325 
" style="fill: none; stroke: #414487; stroke-width: 1.5; stroke-linecap: square"/>
    </g>
    <g id="text_19">
     <!-- NR-limit -->
     <g transform="translate(73.631054 48.59875)scale(0.0833 -0.0833)">
      <defs>
       <path id="SFRM3583-4e" d="M 467 4352 
L 467 4211 
L 877 4179 
L 877 624 
C 877 421 864 140 467 140 
L 467 0 
L 1376 0 
L 1376 140 
C 998 140 966 401 966 624 
L 966 4122 
C 1069 4020 1126 3880 1197 3759 
C 1741 2835 2272 1892 2797 949 
L 3219 204 
C 3251 147 3309 0 3373 0 
C 3418 0 3418 38 3418 64 
L 3418 3739 
C 3418 3943 3450 4211 3827 4211 
L 3827 4352 
L 2918 4352 
L 2918 4211 
C 3270 4211 3328 3975 3328 3752 
L 3328 624 
L 1203 4339 
L 1126 4352 
L 467 4352 
z
" transform="scale(0.015625)"/>
       <path id="SFRM3583-52" d="M 467 4352 
L 467 4211 
L 576 4211 
C 742 4211 877 4192 877 3943 
L 877 408 
C 877 159 768 140 467 140 
L 467 0 
L 1594 0 
L 1594 140 
L 1485 140 
C 1325 140 1184 159 1184 395 
L 1184 2141 
L 1658 2141 
C 1747 2141 1837 2147 1926 2147 
C 2368 2147 2874 1918 2931 1363 
L 2931 854 
C 2931 534 2970 -64 3712 -64 
C 4019 -64 4179 222 4205 495 
L 4205 527 
C 4205 553 4198 584 4166 584 
C 4122 584 4115 527 4115 483 
L 4115 457 
C 4090 247 3955 12 3725 12 
C 3347 12 3309 476 3290 769 
C 3238 1399 3251 1971 2381 2175 
C 2810 2309 3206 2417 3437 2900 
C 3475 2994 3501 3102 3501 3211 
C 3501 3931 2739 4307 2086 4352 
L 467 4352 
z
M 1184 2217 
L 1184 4032 
C 1184 4147 1235 4211 1357 4211 
L 1907 4211 
C 2483 4211 3142 3962 3142 3211 
C 3142 2669 2758 2351 2259 2242 
C 2099 2217 1933 2217 1773 2217 
L 1184 2217 
z
" transform="scale(0.015625)"/>
       <path id="SFRM3583-6d" d="M 301 2744 
L 301 2602 
L 365 2602 
C 570 2602 678 2557 678 2273 
L 678 360 
C 678 153 525 140 301 140 
L 301 0 
L 1318 0 
L 1318 140 
L 1229 140 
C 1082 140 941 160 941 360 
L 941 1258 
C 941 1375 934 1484 934 1601 
C 934 2066 1088 2738 1715 2738 
C 2112 2738 2272 2428 2272 1950 
L 2272 360 
C 2272 153 2118 140 1894 140 
L 1894 0 
L 2912 0 
L 2912 140 
L 2822 140 
C 2675 140 2534 160 2534 360 
L 2534 1258 
C 2534 1375 2528 1484 2528 1601 
C 2528 2066 2682 2738 3309 2738 
C 3706 2738 3866 2428 3866 1950 
L 3866 360 
C 3866 153 3712 140 3488 140 
L 3488 0 
L 4506 0 
L 4506 140 
L 4403 140 
C 4256 140 4128 160 4128 386 
L 4128 1859 
C 4128 2292 4058 2816 3354 2816 
C 2957 2816 2611 2525 2534 2144 
L 2528 2144 
C 2470 2486 2323 2816 1760 2816 
C 1357 2816 998 2492 934 2118 
L 928 2816 
L 301 2744 
z
" transform="scale(0.015625)"/>
      </defs>
      <use xlink:href="#SFRM3583-4e" transform="scale(0.996264)"/>
      <use xlink:href="#SFRM3583-52" transform="translate(66.840991 0)scale(0.996264)"/>
      <use xlink:href="#SFRM3583-2d" transform="translate(132.470779 0)scale(0.996264)"/>
      <use xlink:href="#SFRM3583-6c" transform="translate(162.169072 0)scale(0.996264)"/>
      <use xlink:href="#SFRM3583-69" transform="translate(186.907404 0)scale(0.996264)"/>
      <use xlink:href="#SFRM3583-6d" transform="translate(211.645736 0)scale(0.996264)"/>
      <use xlink:href="#SFRM3583-69" transform="translate(285.984352 0)scale(0.996264)"/>
      <use xlink:href="#SFRM3583-74" transform="translate(310.722684 0)scale(0.996264)"/>
     </g>
    </g>
    <g id="line2d_37">
     <path d="M 56.971054 57.292524 
L 61.969054 57.292524 
L 66.967054 57.292524 
" style="fill: none; stroke: #2a788e; stroke-width: 1.5; stroke-linecap: square"/>
    </g>
    <g id="text_20">
     <!-- Quark -->
     <g transform="translate(73.631054 60.208024)scale(0.0833 -0.0833)">
      <defs>
       <path id="SFRM3583-51" d="M 2822 51 
C 2867 -418 2867 -1152 3437 -1216 
L 3494 -1216 
C 4134 -1216 4166 -331 4166 -77 
L 4166 -32 
C 4166 -13 4166 12 4147 19 
C 4128 19 4102 -858 3552 -858 
C 3117 -858 3014 -480 2938 -170 
C 2925 -108 2906 -39 2899 25 
L 2899 38 
C 2899 89 3200 243 3334 352 
C 3872 806 4134 1509 4134 2206 
C 4134 3253 3469 4402 2310 4480 
L 2227 4480 
C 1805 4480 1408 4305 1088 4027 
C 570 3575 320 2884 320 2200 
C 320 1096 1062 -64 2227 -64 
C 2419 -64 2643 -32 2822 51 
z
M 2861 198 
C 2771 512 2688 921 2227 921 
C 1965 921 1792 672 1792 428 
C 1792 288 1850 166 1939 57 
C 992 256 672 1444 672 2219 
C 672 3162 1133 4396 2253 4396 
C 2880 4396 3373 3847 3590 3304 
C 3731 2943 3782 2555 3782 2168 
C 3782 1418 3539 620 2861 198 
z
M 1869 384 
L 1869 428 
C 1869 633 2010 844 2246 844 
C 2566 844 2714 595 2765 358 
C 2778 313 2797 262 2797 211 
L 2797 204 
C 2797 70 2330 19 2253 19 
C 2029 19 1901 185 1869 384 
z
" transform="scale(0.015625)"/>
       <path id="SFRM3583-6b" d="M 288 4408 
L 288 4264 
L 365 4264 
C 589 4264 666 4165 666 3943 
L 666 371 
C 666 179 582 140 288 140 
L 288 0 
L 1293 0 
L 1293 140 
L 1190 140 
C 1056 140 915 160 915 352 
L 915 1056 
C 915 1209 1165 1369 1286 1491 
L 1389 1587 
C 1600 1222 1850 883 2080 518 
C 2112 467 2189 364 2189 268 
C 2189 230 2176 198 2144 172 
L 2106 153 
C 2080 147 2061 140 2035 140 
L 2035 0 
L 2925 0 
L 2925 140 
C 2573 140 2490 358 2355 563 
C 2118 921 1888 1273 1658 1632 
C 1638 1664 1587 1721 1587 1760 
C 1600 1811 1760 1945 1843 2022 
C 2106 2272 2406 2604 2797 2611 
L 2797 2752 
L 1946 2752 
L 1946 2611 
L 2003 2592 
C 2048 2560 2067 2521 2067 2476 
C 2067 2297 1824 2118 1696 2003 
C 1440 1753 1178 1510 922 1260 
L 922 4480 
L 288 4408 
z
" transform="scale(0.015625)"/>
      </defs>
      <use xlink:href="#SFRM3583-51" transform="scale(0.996264)"/>
      <use xlink:href="#SFRM3583-75" transform="translate(69.378548 0)scale(0.996264)"/>
      <use xlink:href="#SFRM3583-61" transform="translate(118.916976 0)scale(0.996264)"/>
      <use xlink:href="#SFRM3583-72" transform="translate(163.495443 0)scale(0.996264)"/>
      <use xlink:href="#SFRM3583-6b" transform="translate(198.153789 0)scale(0.996264)"/>
     </g>
    </g>
    <g id="line2d_38">
     <path d="M 56.971054 68.901798 
L 61.969054 68.901798 
L 66.967054 68.901798 
" style="fill: none; stroke: #22a884; stroke-width: 1.5; stroke-linecap: square"/>
    </g>
    <g id="text_21">
     <!-- Hybrid -->
     <g transform="translate(73.631054 71.817298)scale(0.0833 -0.0833)">
      <defs>
       <path id="SFRM3583-48" d="M 467 4352 
L 467 4211 
L 576 4211 
C 742 4211 877 4191 877 3941 
L 877 406 
C 877 159 768 140 467 140 
L 467 0 
L 1600 0 
L 1600 140 
L 1491 140 
C 1331 140 1190 159 1190 393 
L 1190 2176 
L 3104 2176 
L 3104 393 
C 3104 178 3021 140 2694 140 
L 2694 0 
L 3827 0 
L 3827 140 
L 3718 140 
C 3552 140 3411 159 3411 406 
C 3411 456 3418 501 3418 551 
L 3418 3941 
C 3418 4191 3526 4211 3827 4211 
L 3827 4352 
L 2694 4352 
L 2694 4211 
L 2810 4211 
C 2970 4211 3104 4191 3104 3960 
L 3104 2316 
L 1190 2316 
L 1190 3960 
C 1190 4159 1267 4211 1600 4211 
L 1600 4352 
L 467 4352 
z
" transform="scale(0.015625)"/>
       <path id="SFRM3583-79" d="M 90 2752 
L 90 2611 
L 134 2611 
C 435 2611 442 2534 672 1965 
C 915 1371 1178 771 1395 170 
C 1421 119 1453 61 1453 4 
C 1453 -9 1453 -28 1446 -41 
C 1389 -201 1318 -360 1254 -520 
C 1139 -808 992 -1204 627 -1204 
C 493 -1204 352 -1146 256 -1057 
C 358 -1057 448 -999 448 -884 
C 448 -788 371 -718 275 -718 
C 186 -718 109 -782 109 -897 
C 109 -1146 390 -1280 614 -1280 
C 1043 -1280 1210 -852 1350 -501 
C 1651 247 1971 981 2253 1735 
L 2368 2023 
C 2464 2272 2573 2611 2931 2611 
L 2931 2752 
L 2189 2752 
L 2189 2611 
C 2304 2611 2394 2496 2394 2387 
C 2394 2272 2330 2151 2291 2055 
C 2138 1678 1984 1307 1837 930 
L 1683 553 
C 1658 483 1626 419 1606 349 
L 1600 349 
C 1581 419 1549 489 1523 553 
L 1382 905 
C 1235 1282 1082 1652 928 2029 
L 819 2298 
C 800 2349 774 2400 768 2451 
L 768 2464 
C 768 2592 922 2611 1018 2611 
L 1018 2752 
L 717 2752 
L 90 2752 
z
" transform="scale(0.015625)"/>
       <path id="SFRM3583-62" d="M 288 4408 
L 288 4265 
L 365 4265 
C 570 4265 666 4187 666 3967 
L 666 -26 
L 749 -13 
L 896 494 
C 1114 208 1267 -64 1722 -64 
C 2445 -64 2912 675 2912 1390 
C 2912 2045 2515 2733 1862 2805 
L 1805 2805 
C 1459 2805 1088 2616 928 2285 
L 922 4480 
L 288 4408 
z
M 2579 1221 
C 2554 916 2509 604 2317 351 
C 2157 150 1926 13 1677 13 
C 1280 13 928 416 928 727 
L 928 1779 
C 928 1850 922 1915 922 1987 
C 922 2376 1357 2727 1741 2727 
C 2458 2727 2586 1811 2586 1364 
C 2586 1318 2586 1266 2579 1221 
z
" transform="scale(0.015625)"/>
      </defs>
      <use xlink:href="#SFRM3583-48" transform="scale(0.996264)"/>
      <use xlink:href="#SFRM3583-79" transform="translate(66.840991 0)scale(0.996264)"/>
      <use xlink:href="#SFRM3583-62" transform="translate(113.89943 0)scale(0.996264)"/>
      <use xlink:href="#SFRM3583-72" transform="translate(163.437859 0)scale(0.996264)"/>
      <use xlink:href="#SFRM3583-69" transform="translate(198.096205 0)scale(0.996264)"/>
      <use xlink:href="#SFRM3583-64" transform="translate(222.834537 0)scale(0.996264)"/>
     </g>
    </g>
    <g id="line2d_39">
     <path d="M 56.971054 80.511072 
L 61.969054 80.511072 
L 66.967054 80.511072 
" style="fill: none; stroke: #7ad151; stroke-width: 1.5; stroke-linecap: square"/>
    </g>
    <g id="text_22">
     <!-- Unified hybrid -->
     <g transform="translate(73.631054 83.426572)scale(0.0833 -0.0833)">
      <defs>
       <path id="SFRM3583-55" d="M 467 4352 
L 467 4211 
L 595 4211 
C 742 4211 877 4191 877 3982 
L 877 1501 
C 877 808 1274 -64 2227 -64 
C 2976 -64 3379 744 3418 1367 
L 3418 3778 
C 3418 4109 3597 4211 3827 4211 
L 3827 4352 
L 2918 4352 
L 2918 4211 
C 3142 4211 3328 4109 3328 3784 
L 3328 1647 
C 3328 1196 3270 725 2925 382 
C 2733 191 2464 76 2195 76 
C 1747 76 1389 432 1274 846 
C 1197 1100 1190 1361 1190 1622 
L 1190 3975 
C 1190 4166 1261 4211 1600 4211 
L 1600 4352 
L 467 4352 
z
" transform="scale(0.015625)"/>
       <path id="SFRM3583-1c" d="M 666 2732 
L 154 2732 
L 154 2591 
L 666 2591 
L 666 356 
C 666 153 512 140 288 140 
L 288 0 
L 1299 0 
L 1299 140 
L 1210 140 
C 1062 140 922 159 922 356 
L 922 2591 
L 1965 2591 
C 2163 2591 2259 2528 2259 2287 
L 2259 350 
C 2259 147 2093 140 1882 140 
L 1882 0 
L 2893 0 
L 2893 140 
L 2803 140 
C 2656 140 2515 159 2515 363 
L 2515 2771 
L 1843 2732 
L 915 2732 
L 915 3599 
C 960 4085 1370 4402 1811 4402 
C 2029 4402 2266 4324 2381 4123 
C 2362 4123 2349 4130 2330 4130 
C 2227 4130 2144 4059 2144 3949 
C 2144 3858 2202 3774 2298 3755 
L 2317 3755 
C 2426 3755 2515 3832 2515 3955 
C 2515 4305 2138 4480 1837 4480 
C 1389 4480 877 4253 710 3800 
C 672 3683 666 3567 666 3450 
L 666 2732 
z
" transform="scale(0.015625)"/>
       <path id="SFRM3583-68" d="M 301 4408 
L 301 4266 
L 378 4266 
C 602 4266 678 4169 678 3950 
L 678 373 
C 678 179 595 140 301 140 
L 301 0 
L 1318 0 
L 1318 140 
L 1229 140 
C 1082 140 941 160 941 360 
L 941 1774 
C 979 2213 1203 2736 1709 2736 
C 2112 2736 2266 2413 2266 1948 
L 2266 360 
C 2266 153 2112 140 1888 140 
L 1888 0 
L 2906 0 
L 2906 140 
L 2803 140 
C 2656 140 2528 160 2528 386 
L 2528 1877 
C 2528 2310 2445 2814 1760 2814 
C 1427 2814 1178 2626 1030 2355 
C 992 2291 954 2213 941 2142 
L 934 4480 
L 301 4408 
z
" transform="scale(0.015625)"/>
      </defs>
      <use xlink:href="#SFRM3583-55" transform="scale(0.996264)"/>
      <use xlink:href="#SFRM3583-6e" transform="translate(66.840991 0)scale(0.996264)"/>
      <use xlink:href="#SFRM3583-69" transform="translate(116.379419 0)scale(0.996264)"/>
      <use xlink:href="#SFRM3583-1c" transform="translate(141.117751 0)scale(0.996264)"/>
      <use xlink:href="#SFRM3583-65" transform="translate(190.594323 0)scale(0.996264)"/>
      <use xlink:href="#SFRM3583-64" transform="translate(230.212722 0)scale(0.996264)"/>
      <use xlink:href="#SFRM3583-68" transform="translate(309.449443 0)scale(0.996264)"/>
      <use xlink:href="#SFRM3583-79" transform="translate(356.507883 0)scale(0.996264)"/>
      <use xlink:href="#SFRM3583-62" transform="translate(403.566323 0)scale(0.996264)"/>
      <use xlink:href="#SFRM3583-72" transform="translate(453.104751 0)scale(0.996264)"/>
      <use xlink:href="#SFRM3583-69" transform="translate(487.763097 0)scale(0.996264)"/>
      <use xlink:href="#SFRM3583-64" transform="translate(512.501429 0)scale(0.996264)"/>
     </g>
    </g>
    <g id="line2d_40">
     <path d="M 56.971054 92.120346 
L 61.969054 92.120346 
L 66.967054 92.120346 
" style="fill: none; stroke: #fde725; stroke-width: 1.5; stroke-linecap: square"/>
    </g>
    <g id="text_23">
     <!-- APR -->
     <g transform="translate(73.631054 95.035846)scale(0.0833 -0.0833)">
      <defs>
       <path id="SFRM3583-41" d="M 166 140 
L 166 0 
L 998 0 
L 998 140 
C 858 147 749 261 749 402 
L 749 433 
C 762 542 813 644 851 746 
C 947 994 1024 1243 1120 1485 
C 1139 1536 1139 1600 1222 1600 
L 2906 1600 
C 2925 1491 2976 1383 3014 1281 
L 3245 650 
C 3283 542 3360 395 3360 300 
C 3360 140 3168 140 3066 140 
L 3066 0 
L 4128 0 
L 4128 140 
L 4026 140 
C 3776 140 3725 242 3654 421 
C 3232 1696 2726 2959 2285 4236 
C 2259 4313 2221 4480 2144 4480 
C 2048 4480 1850 3780 1728 3447 
C 1421 2600 1120 1747 813 905 
L 717 637 
C 627 408 518 140 166 140 
z
M 1210 1740 
L 2029 4018 
L 2848 1740 
L 1210 1740 
z
" transform="scale(0.015625)"/>
       <path id="SFRM3583-50" d="M 467 4352 
L 467 4211 
L 576 4211 
C 742 4211 877 4192 877 3943 
L 877 408 
C 877 159 768 140 467 140 
L 467 0 
L 1600 0 
L 1600 140 
L 1491 140 
C 1331 140 1190 159 1190 395 
L 1190 2070 
L 2170 2070 
C 2778 2070 3578 2389 3578 3204 
C 3578 3860 2963 4300 2310 4352 
L 467 4352 
z
M 1184 2179 
L 1184 4032 
C 1184 4147 1235 4211 1357 4211 
L 2106 4211 
C 2650 4211 3226 3975 3226 3179 
C 3226 2535 2746 2179 2054 2179 
L 1184 2179 
z
" transform="scale(0.015625)"/>
      </defs>
      <use xlink:href="#SFRM3583-41" transform="scale(0.996264)"/>
      <use xlink:href="#SFRM3583-50" transform="translate(66.840991 0)scale(0.996264)"/>
      <use xlink:href="#SFRM3583-52" transform="translate(127.510726 0)scale(0.996264)"/>
     </g>
    </g>
   </g>
  </g>
 </g>
 <defs>
  <clipPath id="pd295d76288">
   <rect x="49.474054" y="23.661476" width="193.94461" height="166.1777"/>
  </clipPath>
 </defs>
</svg>
